<svg xmlns="http://www.w3.org/2000/svg" xmlns:xlink="http://www.w3.org/1999/xlink" width="500" zoomAndPan="magnify" viewBox="0 0 375 374.999991" height="500" preserveAspectRatio="xMidYMid meet" version="1.0"><defs><clipPath id="5cb1e3ab35"><path d="M 51 22.796875 L 118 22.796875 L 118 155 L 51 155 Z M 51 22.796875 " clip-rule="nonzero"/></clipPath><clipPath id="a48a3341b2"><path d="M 256 22.796875 L 324 22.796875 L 324 155 L 256 155 Z M 256 22.796875 " clip-rule="nonzero"/></clipPath><clipPath id="f5d6de66f9"><path d="M 12.976562 64 L 361.726562 64 L 361.726562 352.042969 L 12.976562 352.042969 Z M 12.976562 64 " clip-rule="nonzero"/></clipPath></defs><g clip-path="url(#5cb1e3ab35)"><path fill="#000000" d="M 117.777344 58.910156 C 117.777344 58.910156 111.53125 33.992188 62.101562 22.777344 C 62.101562 22.777344 43.867188 68.164062 55.535156 154.875 L 117.777344 58.910156 " fill-opacity="1" fill-rule="nonzero"/></g><g clip-path="url(#a48a3341b2)"><path fill="#000000" d="M 313.003906 129.238281 L 266.890625 58.144531 C 270.183594 52.730469 280.09375 40.988281 306.652344 33.378906 C 310.351562 47.023438 316.863281 79.496094 313.003906 129.238281 Z M 312.558594 22.777344 C 263.128906 33.992188 256.886719 58.910156 256.886719 58.910156 L 319.128906 154.875 C 330.792969 68.164062 312.558594 22.777344 312.558594 22.777344 " fill-opacity="1" fill-rule="nonzero"/></g><g clip-path="url(#f5d6de66f9)"><path fill="#000000" d="M 231.996094 283.25 C 269.859375 224.875 253.25 146.839844 194.894531 108.964844 L 246.085938 75.738281 L 350.285156 236.390625 L 198.492188 334.917969 Z M 192.445312 275.382812 L 192.445312 279.59375 C 192.445312 282.417969 190.15625 284.710938 187.332031 284.710938 C 184.507812 284.710938 182.21875 282.417969 182.21875 279.59375 L 182.21875 275.382812 C 182.21875 267.890625 176.148438 261.816406 168.65625 261.816406 C 165.835938 261.816406 163.546875 259.527344 163.546875 256.703125 C 163.546875 253.878906 165.835938 251.589844 168.65625 251.589844 L 206.003906 251.589844 C 208.828125 251.589844 211.117188 253.878906 211.117188 256.703125 C 211.117188 259.527344 208.828125 261.816406 206.003906 261.816406 C 198.515625 261.816406 192.445312 267.890625 192.445312 275.382812 Z M 141.65625 190.082031 C 138.636719 189.949219 135.597656 189.78125 132.558594 189.53125 C 126.472656 189.019531 120.359375 188.203125 114.28125 186.667969 C 111.246094 185.867188 108.207031 184.921875 105.25 183.5 C 103.785156 182.75 102.308594 181.980469 100.957031 180.84375 C 100.285156 180.273438 99.632812 179.636719 99.105469 178.839844 C 98.597656 178.039062 98.242188 176.980469 98.449219 176.0625 C 98.65625 176.972656 99.183594 177.558594 99.792969 177.960938 C 100.398438 178.367188 101.070312 178.648438 101.765625 178.863281 C 103.160156 179.28125 104.601562 179.566406 106.074219 179.726562 C 109.007812 180.089844 111.988281 180.277344 114.976562 180.4375 C 120.953125 180.773438 126.976562 181.019531 133.019531 181.5 C 136.042969 181.742188 139.074219 182.027344 142.117188 182.398438 C 145.179688 182.832031 148.183594 183.1875 151.40625 184.121094 C 154.632812 185.058594 157.800781 186.691406 160.390625 189.207031 C 162.921875 191.738281 165.035156 195.015625 165.605469 198.734375 C 161.550781 193.050781 155.957031 191.011719 150.503906 190.511719 C 147.730469 190.265625 144.652344 190.210938 141.65625 190.082031 Z M 248.511719 64.347656 L 187.332031 104.054688 L 126.152344 64.347656 L 12.992188 238.816406 L 187.171875 351.871094 L 187.265625 352.019531 L 187.332031 351.980469 L 187.398438 352.019531 L 187.492188 351.871094 L 361.671875 238.816406 L 248.511719 64.347656 " fill-opacity="1" fill-rule="nonzero"/></g></svg>