<svg xmlns="http://www.w3.org/2000/svg" xmlns:xlink="http://www.w3.org/1999/xlink" width="500" zoomAndPan="magnify" viewBox="0 0 375 374.999991" height="500" preserveAspectRatio="xMidYMid meet" version="1.0"><defs><clipPath id="1946331976"><path d="M 50 21.273438 L 118 21.273438 L 118 155 L 50 155 Z M 50 21.273438 " clip-rule="nonzero"/></clipPath><clipPath id="1570af79f9"><path d="M 257 21.273438 L 325 21.273438 L 325 155 L 257 155 Z M 257 21.273438 " clip-rule="nonzero"/></clipPath><clipPath id="1f230a925f"><path d="M 11.367188 63 L 363.867188 63 L 363.867188 353.523438 L 11.367188 353.523438 Z M 11.367188 63 " clip-rule="nonzero"/></clipPath></defs><g clip-path="url(#1946331976)"><path fill="#ffffff" d="M 117.289062 57.71875 C 117.289062 57.71875 110.980469 32.574219 61.015625 21.253906 C 61.015625 21.253906 42.585938 67.054688 54.378906 154.554688 L 117.289062 57.71875 " fill-opacity="1" fill-rule="nonzero"/></g><g clip-path="url(#1570af79f9)"><path fill="#ffffff" d="M 314.617188 128.6875 L 268.007812 56.945312 C 271.339844 51.484375 281.355469 39.632812 308.199219 31.953125 C 311.941406 45.722656 318.523438 78.492188 314.617188 128.6875 Z M 314.167969 21.253906 C 264.207031 32.574219 257.898438 57.71875 257.898438 57.71875 L 320.808594 154.554688 C 332.601562 67.054688 314.167969 21.253906 314.167969 21.253906 " fill-opacity="1" fill-rule="nonzero"/></g><g clip-path="url(#1f230a925f)"><path fill="#ffffff" d="M 232.742188 284.101562 C 271.011719 225.191406 254.222656 146.449219 195.238281 108.230469 L 246.984375 74.699219 L 352.300781 236.816406 L 198.875 336.242188 Z M 192.761719 276.164062 L 192.761719 280.414062 C 192.761719 283.261719 190.449219 285.574219 187.59375 285.574219 C 184.738281 285.574219 182.425781 283.261719 182.425781 280.414062 L 182.425781 276.164062 C 182.425781 268.601562 176.289062 262.472656 168.71875 262.472656 C 165.867188 262.472656 163.550781 260.164062 163.550781 257.3125 C 163.550781 254.464844 165.867188 252.152344 168.71875 252.152344 L 206.46875 252.152344 C 209.320312 252.152344 211.636719 254.464844 211.636719 257.3125 C 211.636719 260.164062 209.320312 262.472656 206.46875 262.472656 C 198.898438 262.472656 192.761719 268.601562 192.761719 276.164062 Z M 141.425781 190.085938 C 138.375 189.953125 135.304688 189.78125 132.230469 189.53125 C 126.082031 189.011719 119.902344 188.1875 113.757812 186.640625 C 110.6875 185.832031 107.621094 184.875 104.628906 183.445312 C 103.148438 182.6875 101.65625 181.910156 100.289062 180.761719 C 99.613281 180.1875 98.953125 179.542969 98.417969 178.742188 C 97.90625 177.933594 97.546875 176.863281 97.753906 175.9375 C 97.964844 176.855469 98.5 177.449219 99.113281 177.851562 C 99.722656 178.265625 100.402344 178.546875 101.105469 178.761719 C 102.515625 179.183594 103.976562 179.472656 105.464844 179.632812 C 108.429688 180.003906 111.441406 180.191406 114.460938 180.351562 C 120.5 180.691406 126.585938 180.941406 132.699219 181.425781 C 135.753906 181.667969 138.816406 181.957031 141.894531 182.332031 C 144.988281 182.769531 148.027344 183.125 151.28125 184.066406 C 154.542969 185.015625 157.746094 186.664062 160.363281 189.203125 C 162.921875 191.757812 165.054688 195.0625 165.636719 198.816406 C 161.535156 193.082031 155.882812 191.023438 150.371094 190.519531 C 147.566406 190.269531 144.453125 190.214844 141.425781 190.085938 Z M 249.429688 63.203125 L 187.59375 103.273438 L 125.753906 63.203125 L 11.375 239.261719 L 187.433594 353.347656 L 187.527344 353.496094 L 187.59375 353.457031 L 187.660156 353.496094 L 187.753906 353.347656 L 363.8125 239.261719 L 249.429688 63.203125 " fill-opacity="1" fill-rule="nonzero"/></g></svg>